<?xml version="1.0" encoding="iso-8859-1"?>
<!-- Generator: Adobe Illustrator 19.0.0, SVG Export Plug-In . SVG Version: 6.00 Build 0)  -->
<svg version="1.1" id="Layer_1" xmlns="http://www.w3.org/2000/svg" xmlns:xlink="http://www.w3.org/1999/xlink" x="0px" y="0px"
	 viewBox="0 0 512.001 512.001" style="enable-background:new 0 0 512.001 512.001;" xml:space="preserve">
<g>
	<g>
		<path d="M480.531,74.889c-20.334-21.647-47.54-33.58-76.607-33.601c-0.026,0-0.051,0-0.077,0
			c-29.09,0-56.347,11.928-76.758,33.592l-68.935,76.035l-73.216-76.035c-20.409-21.663-47.674-33.592-76.774-33.592
			s-56.365,11.93-76.782,33.601c-41.843,44.541-41.843,117.015,0.006,161.563l147.85,157.048l79.303,77.214l74.187-77.149
			l147.796-157.111C522.492,191.908,522.492,119.425,480.531,74.889z M468.12,224.779L320.417,381.791l-62.275,64.763l-66.63-64.865
			L43.797,224.783c-17.239-18.351-26.733-42.897-26.733-69.116s9.494-50.765,26.724-69.107
			c17.156-18.21,40.018-28.239,64.375-28.239c24.358,0,47.22,10.028,64.443,28.306l85.924,89.234l81.015-89.362
			c17.153-18.175,39.982-28.179,64.303-28.179c0.02,0,0.043,0,0.065,0c24.318,0.017,47.12,10.043,64.212,28.239
			c17.288,18.349,26.809,42.892,26.809,69.107S485.414,206.424,468.12,224.779z"/>
	</g>
</g>
<g>
	<g>
		<path d="M99.402,89.695l-2.733-8.198c-0.595,0.199-14.721,5.007-28.705,18.212c-12.873,12.158-28.219,34.061-28.219,69.358h17.033
			c0-55.258,43.46-70.786,45.309-71.422L99.402,89.695z"/>
	</g>
</g>
<g>
</g>
<g>
</g>
<g>
</g>
<g>
</g>
<g>
</g>
<g>
</g>
<g>
</g>
<g>
</g>
<g>
</g>
<g>
</g>
<g>
</g>
<g>
</g>
<g>
</g>
<g>
</g>
<g>
</g>
</svg>
